{"title":"Reazione a catena / A Bay of Blood (1971) BDRip-AVC MediaClub","uid":10668053,"size":1413835998,"categoryP":"video","categoryS":"hd___movies","magnet":"?xt=urn:btih:31f958e436b2369e02beaed1541f617b44fade66&amp;dn=Reazione+a+catena+%2F+A+Bay+of+Blood+%281971%29+BDRip-AVC+MediaClub&amp;tr=udp%3A%2F%2Ftracker.openbittorrent.com%3A80&amp;tr=udp%3A%2F%2Fopen.demonii.com%3A1337&amp;tr=udp%3A%2F%2Ftracker.coppersurfer.tk%3A6969&amp;tr=udp%3A%2F%2Fexodus.desync.com%3A6969","seeders":1,"leechers":1,"uploader":"neni69","files":1,"time":1406834720,"description":" &lt;a href=&quot; http://mediaclub.tv/&quot; rel=&quot;nofollow&quot; target=&quot;_NEW&quot;&gt; http://mediaclub.tv/&lt;/a&gt;   Welcome to MediaClub\n\n===================================================================\n\nUnique ID                      : 230664839741314743142116320088744074362 (0xAD886EA47EF2B0DFB771423BDFAD1C7A)\nComplete name                  : E:MCKrowawyj.zaliw.1971.x264.BDRip(AVC)-MediaClubKrowawyj.zaliw.1971.x264.BDRip(AVC)-MediaClub.mkv\nFormat                         : Matroska\nFormat version                 : Version 4 / Version 2\nFile size                      : 1.32 GiB\nDuration                       : 1h 24mn\nOverall bit rate               : 2 243 Kbps\nMovie name                     : -= Release MediaClub =-\nEncoded date                   : UTC 2014-07-30 19:01:41\nWriting application            : mkvmerge v6.4.1 ('Omega Point') built on Sep 16 2013 22:05:10\nWriting library                : libebml v1.3.0 + libmatroska v1.4.1\n\nVideo\nID                             : 1\nFormat                         : AVC\nFormat/Info                    : Advanced Video Codec\nFormat profile                 : &lt;a class=&quot;__cf_email__&quot; href=&quot;/cdn-cgi/l/email-protection&quot; data-cfemail=&quot;3d75545a557d7109130c&quot;&gt;[email&amp;#160;protected]&lt;/a&gt;&lt;script cf-hash='f9e31' type=&quot;text/javascript&quot;&gt;\n/* &lt;![CDATA[ */!function(){try{var t=&quot;currentScript&quot;in document?document.currentScript:function(){for(var t=document.getElementsByTagName(&quot;script&quot;),e=t.length;e--;)if(t[e].getAttribute(&quot;cf-hash&quot;))return t[e]}();if(t&amp;&amp;t.previousSibling){var e,r,n,i,c=t.previousSibling,a=c.getAttribute(&quot;data-cfemail&quot;);if(a){for(e=&quot;&quot;,r=parseInt(a.substr(0,2),16),n=2;a.length-n;n+=2)i=parseInt(a.substr(n,2),16)^r,e+=String.fromCharCode(i);e=document.createTextNode(e),c.parentNode.replaceChild(e,c)}}}catch(u){}}();/* ]]&gt; */&lt;/script&gt;\nFormat settings, CABAC         : Yes\nFormat settings, ReFrames      : 12 frames\nCodec ID                       : V_MPEG4/ISO/AVC\nDuration                       : 1h 24mn\nBit rate                       : 1 857 Kbps\nWidth                          : 1 024 pixels\nHeight                         : 542 pixels\nDisplay aspect ratio           : 1.889\nFrame rate                     : 23.976 fps\nColor space                    : YUV\nChroma subsampling             : 4:2:0\nBit depth                      : 8 bits\nScan type                      : Progressive\nBits/(Pixel*Frame)             : 0.140\nStream size                    : 1.07 GiB (81%)\nTitle                          : Krowawyj.zaliw.1971.x264.BDRip(AVC)-neni\nWriting library                : x264 core 142 r2409+42 04be48a tMod [8-bit@4:2:0 X86_64]\nEncoding settings              : cabac=1 / ref=12 / deblock=1:-3:-3 / analyse=0x3:0x133 / me=umh / subme=11 / psy=1 / fade_compensate=0.00 / psy_rd=1.00:0.25 / mixed_ref=1 / me_range=48 / chroma_me=1 / trellis=2 / 8x8dct=1 / cqm=0 / deadzone=21,11 / fast_pskip=0 / chroma_qp_offset=-4 / threads=9 / lookahead_threads=1 / sliced_threads=0 / nr=0 / decimate=0 / interlaced=0 / bluray_compat=0 / constrained_intra=0 / fgo=0 / bframes=8 / b_pyramid=2 / b_adapt=2 / b_bias=0 / direct=3 / weightb=1 / open_gop=0 / weightp=2 / keyint=250 / keyint_min=23 / scenecut=40 / intra_refresh=0 / rc=2pass / mbtree=0 / bitrate=1857 / ratetol=1.0 / qcomp=0.60 / qpmin=0:0:0 / qpmax=69:69:69 / qpstep=4 / cplxblur=20.0 / qblur=0.5 / ip_ratio=1.40 / pb_ratio=1.30 / aq=2:1.00 / aq-sensitivity=10.00 / aq-factor=1.00:1.00:1.00 / aq2=0 / aq3=0\nLanguage                       : English\nDefault                        : Yes\nForced                         : No\n\nAudio #1\nID                             : 2\nFormat                         : AC-3\nFormat/Info                    : Audio Coding 3\nMode extension                 : CM (complete main)\nFormat settings, Endianness    : Big\nCodec ID                       : A_AC3\nDuration                       : 1h 24mn\nBit rate mode                  : Constant\nBit rate                       : 192 Kbps\nChannel(s)                     : 2 channels\nChannel positions              : Front: L R\nSampling rate                  : 48.0 KHz\nBit depth                      : 16 bits\nCompression mode               : Lossy\nStream size                    : 115 MiB (9%)\nTitle                          : L1\nLanguage                       : Russian\nDefault                        : Yes\nForced                         : No\n\nAudio #2\nID                             : 3\nFormat                         : AC-3\nFormat/Info                    : Audio Coding 3\nMode extension                 : CM (complete main)\nFormat settings, Endianness    : Big\nCodec ID                       : A_AC3\nDuration                       : 1h 24mn\nBit rate mode                  : Constant\nBit rate                       : 192 Kbps\nChannel(s)                     : 1 channel\nChannel positions              : Front: C\nSampling rate                  : 48.0 KHz\nBit depth                      : 16 bits\nCompression mode               : Lossy\nStream size                    : 115 MiB (9%)\nTitle                          : ENG\nLanguage                       : English\nDefault                        : No\nForced                         : No\n\nText\nID                             : 4\nFormat                         : UTF-8\nCodec ID                       : S_TEXT/UTF8\nCodec ID/Info                  : UTF-8 Plain Text\nTitle                          : SDH\nLanguage                       : English\nDefault                        : No\nForced                         : No\n\nMenu\n00:00:00.000                   : en:00:00:00.000\n00:01:54.740                   : en:00:01:54.740\n00:08:28.717                   : en:00:08:28.717\n00:15:56.372                   : en:00:15:56.372\n00:18:57.845                   : en:00:18:57.845\n00:23:06.218                   : en:00:23:06.218\n00:29:47.285                   : en:00:29:47.285\n00:33:35.222                   : en:00:33:35.222\n00:38:22.342                   : en:00:38:22.342\n00:42:38.890                   : en:00:42:38.890\n00:48:56.308                   : en:00:48:56.308\n00:53:21.281                   : en:00:53:21.281\n01:00:35.590                   : en:01:00:35.590\n01:04:58.770                   : en:01:04:58.770\n01:13:26.569                   : en:01:13:26.569\n01:17:47.079                   : en:01:17:47.079","torrent":{"xt":"urn:btih:31f958e436b2369e02beaed1541f617b44fade66","amp;dn":"Reazione+a+catena+%2F+A+Bay+of+Blood+%281971%29+BDRip-AVC+MediaClub","amp;tr":["udp%3A%2F%2Ftracker.openbittorrent.com%3A80","udp%3A%2F%2Fopen.demonii.com%3A1337","udp%3A%2F%2Ftracker.coppersurfer.tk%3A6969","udp%3A%2F%2Fexodus.desync.com%3A6969"],"infoHash":"31f958e436b2369e02beaed1541f617b44fade66","infoHashBuffer":{"type":"Buffer","data":[49,249,88,228,54,178,54,158,2,190,174,209,84,31,97,123,68,250,222,102]},"announce":[],"urlList":[]}}